<svg viewBox="0 0 473 363" width="473" xmlns="http://www.w3.org/2000/svg"><g fill="none" stroke-miterlimit="10"><g stroke="#00f"><path d="m226.8 104.6c-1.4 0-2.5-1.1-2.6-2.5-.4-5.8 2-10.8 6.9-15 3.9-3.3 8.6-5.7 13.6-6.8 5.6-1.3 11.4-1.4 17.1-.4 6.3 1.2 15 4.4 26.1 9.4l4.4 2c2.5 1.1 4.3 1.9 5.2 2.1l4.5 1.6c3.3 1.3 6.9 1.9 10.5 1.9 17.7 0 32.1-14.4 32.2-32.1 0-17.8-14.4-32.2-32.2-32.2-8.6 0-16.4 3.5-23.6 10.3l-.7.6c-1.1.7-2.5.4-3.2-.7-1-1.2-.7-2.6.8-4.2 6.9-7.2 16.6-11.3 26.6-11.2 10-.3 19.6 3.7 26.6 10.8 7.2 6.9 11.2 16.5 11 26.5.2 10-3.8 19.5-11 26.4-6.9 7.2-16.4 11.2-26.4 11-2.3 0-4.7-.3-7-.7-2-.4-5.3-1.5-6.9-2l-3.5-1.3-3.1-1.3-3.4-1.5-3-1.3c-10.4-4.8-18.8-7.8-24.9-9-4.8-.9-9.8-.9-14.6.2-4.3.9-8.4 2.9-11.8 5.8-3.6 3.3-5.3 6.8-5 10.8.1 1.5-1 2.7-2.5 2.8z"/><path d="m314.1 186.2c-1.7 0-3-1.3-3.1-3-.4-7 2.4-13 8.3-18.1 4.3-3.8 9.8-6.5 16.4-8.2 6.7-1.5 13.7-1.7 20.5-.4 7.6 1.5 18.1 5.3 31.4 11.3l5.3 2.4c3 1.3 5.2 2.2 6.3 2.6l5.4 1.9c4.1 1.5 8.4 2.3 12.7 2.2 21.3 0 38.6-17.3 38.7-38.6 0-21.4-17.3-38.7-38.7-38.7-10.3 0-19.7 4.2-28.4 12.3l-.8.7c-1.3.8-3 .4-3.8-.8-1.3-1.5-.9-3.1 1-5 9-9 19.7-13.5 32-13.5 24.9 0 45 20.1 45 45-.1 24.8-20.2 44.9-45 45-2.8-.1-5.6-.4-8.4-.9-2.4-.4-6.4-1.8-8.3-2.4l-4.2-1.6-3.7-1.6-4-1.8-3.6-1.6c-12.6-5.7-22.6-9.4-30-10.9-5.8-1.1-11.7-1-17.5.2-5.3 1.1-10.2 3.5-14.3 7-4.4 3.9-6.4 8.2-6.1 13 .1 1.8-1.2 3.3-3 3.4z"/><path d="m323.4 268.6c-1.7 0-3 1.3-3.1 3-.4 7 2.4 13 8.3 18.1 4.3 3.8 9.8 6.5 16.4 8.2 6.7 1.5 13.7 1.7 20.5.4 7.6-1.5 18.1-5.3 31.4-11.3l5.3-2.4c3-1.3 5.2-2.2 6.3-2.6l5.4-1.9c4.1-1.5 8.4-2.3 12.7-2.2 21.3-1.1 39.5 15.3 40.6 36.7 1.1 21.3-15.3 39.5-36.7 40.6-1.3.1-2.6.1-3.9 0-10.3 0-19.7-4.2-28.4-12.3l-.8-.7c-1.3-.8-3-.4-3.8.8-1.3 1.5-.9 3.1 1 5 9 9 19.7 13.5 32 13.5 24.8.1 44.9-20 45-44.8 0-12-4.7-23.5-13.2-31.9-8.3-8.6-19.8-13.4-31.8-13.2-2.8.1-5.6.4-8.4.9-2.4.4-6.4 1.8-8.3 2.4l-4.2 1.6-3.7 1.6-4 1.8-3.6 1.6c-12.6 5.7-22.6 9.4-30 10.9-5.8 1.1-11.7 1-17.5-.2-5.3-1.1-10.2-3.5-14.3-7-4.4-3.9-6.4-8.2-6.1-13 .1-1.8-1.2-3.3-3-3.4z"/><path d="m149.6 170c1.7 0 3 1.3 3.1 3 .4 7-2.4 13-8.3 18.1-4.3 3.8-9.8 6.5-16.4 8.2-6.7 1.5-13.7 1.7-20.5.4-7.6-1.5-18.1-5.3-31.4-11.3l-5.3-2.4c-3-1.3-5.2-2.2-6.3-2.6l-5.4-1.9c-4.1-1.5-8.4-2.3-12.7-2.2-10.3-.2-20.2 3.9-27.4 11.3-15.1 15.1-15.1 39.5 0 54.6 7.2 7.4 17.1 11.5 27.4 11.3 10.3 0 19.7-4.2 28.4-12.3l.8-.7c1.3-.8 3-.4 3.8.8 1.3 1.5.9 3.1-1 5-9 9-19.7 13.5-32 13.5-12 .2-23.5-4.5-31.8-13.1-17.6-17.4-17.7-45.8-.2-63.4.1-.1.2-.2.2-.2 8.3-8.6 19.8-13.4 31.8-13.2 2.8.1 5.6.4 8.4.9 2.4.4 6.4 1.8 8.3 2.4l4.2 1.6 3.7 1.6 4 1.8 3.6 1.6c12.6 5.7 22.6 9.4 30 10.9 5.8 1.1 11.7 1 17.5-.2 5.3-1.1 10.2-3.5 14.3-7 4.4-3.9 6.4-8.2 6.1-13-.1-1.8 1.2-3.3 3-3.4z"/></g><g stroke="#f00"><path d="m329.6 7c-1.2-.7-2.7-1.1-4.1-1.1-7.3 0-13.3 10.1-16.3 16.6l-17.6 38c-1.1 2.6-1.7 5.4-1.8 8.2 0 2.8 1 5.1 3.9 5.1l1.5-.2c2.9-.5 3.5 4.2 0 4.9l-1.8.2c-6.3 0-8.5-4.7-8.5-10 .1-3.5.9-6.9 2.4-10l6.4-13.6c.5-1.2.2-1.6-1.1-1.6h-13c-2.7 0-3.2 1.1-3.9 2.3-8.6 14-21.6 26.4-37.7 26.4-14.3 0-26.4-10.2-26.4-25.1-.1-13.8 10.9-25 24.7-25.1h.6c13.1 0 19.6 7.6 19.6 16.6 0 4-1.7 7.7-4.7 10.3-2.9 2.5-6.3-.8-3-4 1.8-1.6 2.8-3.9 2.8-6.3 0-6.5-4.8-11.6-14.8-11.6-11-.3-20.1 8.4-20.4 19.4v.6c0 11.9 10.5 20.2 21.5 20.2 15 0 28.4-14.9 36.2-28.4 10.6-18.1 27.9-37.6 50.9-37.6 2.7-.1 5.4.6 7.7 1.9 2.9 1.7.1 6.1-3.1 3.9zm-16.7.8c-12.4 3.8-23.6 14.1-32.3 29.2-.4.6-.5 1.8 1.2 1.8h12.7c1.1.1 2.2-.6 2.6-1.6l7-15c2.6-5.2 5.5-10.5 8.7-14.4h.1z"/><path d="m192.3 70.9c-21.9 0-36.9 15.4-36.9 30 .1 10.4 7.2 19.4 17.2 21.9 2.1.6 2.1.8.9 2.7-1.8 2.8-4.1 5.3-6.8 7.3-6-2.3-11.9-4.3-18.3-4.3s-9.3 2.8-9.3 6.2c0 6 9.1 7.3 12.9 7.3 6.4-.1 11-1.3 15.3-3.7 6.6 2.7 13.2 5.2 20.1 5.2 24.7 0 42.3-19.1 42.3-39.9s-19.5-32.7-37.4-32.7zm-33.4 65.4c-2.3.5-4.6.7-7 .7-2 0-7.9-.2-7.9-2.4 0-.6 1.4-1.5 4.1-1.5 3.7.1 7.3.9 10.8 2.1 1 .5.9.9 0 1.1zm15.1-18c-8-2.1-13.6-9.3-13.6-17.6 0-11.8 12.6-24.6 31.9-24.8 1.7-.1 3.4.1 5 .4 1.9.5 1.2 1.6.6 2.5-2.9 4.3-5.5 8.8-7.7 13.4-.9-.6-1.9-1-2.9-1.4-4.1-1.4-5.7 3.3-2.3 4.4 1.1.4 2.1.9 3 1.5l-7 15.1-2.2 4.4c-1.4 2.8-1.9 2.8-4.8 2.1zm19.1-12.9c0 5-3.2 9.5-7.9 11.8-.6.3-2 .8-1-.7l1.5-3.1 6.1-12.9c.8 1.5 1.3 3.2 1.3 4.9zm-5.8 33.2c-4.4 0-9.2-1.7-14-3.2-.7-.2-1-.6-.5-1.2 2.9-3.3 5.5-6.9 7.7-10.8 10.1-1.2 17.7-8.6 17.7-18 0-3.8-1.4-7.4-4-10.1 2.9-6.1 5.8-11.5 8.8-15.5 1.3-1.8 2.1-1.6 3.6-1 12.1 4.7 17.6 14.7 17.6 24.9.1 18.4-15.2 34.9-36.9 34.9z"/><path d="m378.9 101.8-10.5 22.5c-.9 1.8-3.6 7.3-7.9 7.3-1.9 0-3.2-.7-3.2-2.2.1-1 .4-2.1.9-3l10.7-22.7c1.7-3.6-3.2-5-4.6-1.8l-10.4 22.1-.3.4c-.9 1.8-3.5 7.3-7.8 7.3-1.7 0-2.8-.6-2.8-2.1.1-1.2.4-2.3.9-3.3l6.8-14.2c.8-1.6 1.3-3.4 1.4-5.2 0-4.5-2.9-7-7.7-7-3 .1-5.8 1.4-7.8 3.6-1.1-2.4-3.2-3.6-6.6-3.6-1.9.1-3.7.9-5 2.2-.1-1.1-1-1.9-2.1-1.8-1.1 0-2.2.7-2.6 1.7l-10.7 22.5-1.1 2.1c-1.3 2.3-3.6 5.3-6.7 5.3s-2.8-.6-2.8-2.1c.1-1.2.4-2.3.9-3.3l10.5-22.5c1.2-3.3-3.4-4.2-4.7-1-.9-1.9-3.7-2.9-6.1-2.9-7 0-10.8 7.2-12.2 10l-7.1 14.5v.2c-1.7 2.6-5.8 7.1-11.2 7.1-3.6-.1-5.7-1.7-5.7-4.6 0-1.4.5-2.8 1.5-5.4.3-1 1.3-1.5 2.2-1.3.1 0 .3.1.4.2.9.3 1.9.4 2.8.4 6.1 0 10.3-3.2 13.4-10.9.5-1.2.8-2.6.8-3.9 0-3.9-2.6-6.2-7.3-6.2-6.6 0-10.4 7.1-11.9 10l-5.1 10.5c-.6 1.2-1.1 2.5-1.5 3.8l-.2.3c-.9 1.8-3.5 7.3-7.8 7.3s-2.8-3.3-1.8-5.4l7.3-15.1c.7-1.7 1.2-3.5 1.4-5.3 0-7.9-10-3.8-6.8-10 1.8-3.7-3-5.7-4.7-2l-14.4 30.6c-.9 1.9-2.9 6.7-2.9 11.1s2.6 10.6 7.9 10.6c3.8 0 3.6-5 0-5-1.7 0-2.8-2.8-2.8-5.6 0-3.2.8-6.3 2.3-9.1l11.6-24.1c.4 2.9 4.6 1.4 4.6 4.1-.1 1-.4 2.1-.9 3l-7.1 14.8c-.9 1.6-1.3 3.5-1.4 5.3 0 4.7 2.9 6.9 7.9 6.9 3.4 0 6.3-2.1 8.5-4.5 1.8 3 5.5 4.5 10 4.5 3.9-.1 7.6-1.4 10.6-3.9 1.2 2.6 4 3.9 7.8 3.9 2.8 0 5.4-1.2 7.3-3.2 1.2 2.2 3.7 3.2 7 3.2 6.7 0 11.1-7.1 12.5-10.2l7.2-15.4c.9-2.1 4.1-6.2 7.9-6.2 1.7 0 2.8.9 2.8 2.2-.1 1.1-.4 2.2-.9 3.2l-10.9 22.6c-1.7 3.5 3.4 4.6 5.2.8l10.4-21.8c1.4-2.9 4.6-7 8.3-7 1.7 0 2.6.9 2.6 2.2-.1 1-.4 2.1-.9 3l-6.9 14.4c-.8 1.7-1.3 3.5-1.4 5.3 0 4.7 2.9 6.9 7.9 6.9 2.8-.1 5.4-1.3 7.4-3.3 1.3 2.2 4 3.3 7.4 3.3l2.2-.2-.6 1.3c-4.4 10-11 16-17.6 16s-7.3-2.6-7.3-5.2c.1-2.8 2.3-5.1 5.1-5.3 1.3 0 2.4-1.1 2.4-2.4s-1.1-2.4-2.4-2.4c-5.5.2-10 4.6-10.2 10.1 0 5.1 3.6 10 12.4 10s17.6-8.5 22.7-20l16.3-34.5c1.6-4.3-3.4-5.6-4.8-2.5zm-109.8 11.6 1.2-2.7c1.3-2.9 3.5-6.7 6.8-6.2s1.7 3.4 1 5c-1.8 4.2-4 6.3-7.2 6.3s-2.2-1.5-1.8-2.4zm25.6 11.9c-1 2.2-3.7 6.2-7.2 6.2s-3.5-2.8-2.4-5.2l6.8-14.1c1-2.1 3.5-7.7 7.9-7.7s3.5 3 2.4 5.4z"/><path d="m181.9 166.8c0-13.6-15-23-31.7-23-31.4 0-46.5 21.2-46.5 35.8 0 8.9 4.5 16.9 13.4 20.1 3.8 1.2 5.3-3.3 1.8-4.6-6.5-2.6-10-8.5-10-15.4 0-13 13-31.3 41.6-31.3 3.7 0 7.4.6 11 1.7-4.9 3.1-9 12.6-12.8 20.6l-3.2 6.7c-1.1 2.3-2.3 4.6-3.2 6.8h.1c-4.6 9.4-9 18.2-16.2 22.5-5.4-2.5-11.1-5.2-16.9-5.2s-9 3-9 6.2c0 5.9 9.1 7.2 12.9 7.3 4.6.1 9.2-.8 13.4-2.7 6 2.7 12.4 5.3 19.7 5.3 16 0 28.8-12.4 28.8-23.9 0-3.5-1.3-7-3.7-9.6 5.9-3.6 10.5-9.6 10.5-17.3zm-68.8 43.2c-2 0-7.9-.2-7.9-2.4 0-.6 1.4-1.4 4.1-1.5 4.6 0 7.5 1.5 10.9 2.9-2.3.6-4.7.9-7.1 1zm54.1-29.4c-3.1-1.6-6.4-2.5-9.9-2.5-3.7 0-7.3 1.8-7.3 5s3.1 4.7 7.3 4.7c3.2 0 6.3-.5 9.3-1.5 2 1.8 3.1 4.5 2.9 7.2 0 9.3-10.3 18.9-23.7 18.9-5-.2-9.9-1.3-14.5-3.4 6.7-5.2 10.7-13.5 15.5-23.3l6.4-13.3c4.1-8.9 8.3-18.7 12.8-20.5 6.5 3.5 10.4 9.1 10.4 14.7s-3.9 11.5-9.2 14zm-4.8 2.7c-1.6.6-3.3.9-5 .8-1.4-.1-3.3-.8-2.9-1.3s6.3-.5 8 .6z"/><path d="m206.7 179.2c0-4.6-3.3-6.9-8.4-6.9-7 0-10.8 7.1-12.3 9.9l-7.1 14.4c-.7 1.6-1.2 3.3-1.3 5.1 0 4.6 3.3 6.9 8.4 6.9 7 0 10.8-7.1 12.3-9.9l7-14.3c.8-1.6 1.3-3.4 1.4-5.2zm-6 3-6.8 14.2c-1 2.1-3.6 7.5-7.9 7.5-1.9 0-3.2-.7-3.2-2.2.1-1.1.4-2.1.9-3l6.8-14c1-2.1 3.5-7.6 7.9-7.6s3.4 2.6 2.3 5.1z"/><path d="m295.6 168.3c2.2 0 4-1.5 4.5-3.6.4-1.8-.8-3.6-2.6-4-.3-.1-.7-.1-1-.1-2.1.1-3.9 1.6-4.4 3.7-.4 1.8.7 3.5 2.5 3.9.3.1.7.1 1 .1z"/><path d="m387.6 180.4c-13.3.1-21 9.3-21.1 17.6 0 3.1 1.1 6.4 2.9 8.1s6.7-.4 4.6-2.9-2.2-2.5-2.2-5c-.1-7.1 6.4-12.9 16-12.9 9.6-.2 17.6 7.4 17.8 17v.1c0 12.5-11.3 26-30.8 26.1-18 0-27.7-11.1-27.6-21.6-.2-3.8.6-7.6 2.3-11l19.3-40.1c2-3.9-3-5.2-4.7-1.9l-19.5 40.2-1 2.4h-.1c-1 1.8-3.5 7.2-7.8 7.2-1.7 0-2.8-.6-2.8-2.1.1-1.2.4-2.3 1-3.3l10.6-22.3c1.2-3.3-3.4-4.2-4.7-1-1-1.9-3.7-2.9-6.1-2.9-7 0-10.8 7.1-12.3 9.9l-7.1 14.4v.2c-1.7 2.6-5.8 7.1-11.2 7.1-3.6 0-5.7-1.6-5.7-4.5.1-1.7.5-3.3 1.3-4.8l4.9-10c1.4-2.9 3.5-7.5 7.4-7.5 1.5 0 2.4.7 2.4 1.5-.1 1.5-.5 2.9-1.3 4.1-2.1 3.7 3.2 5.4 5 1.8 1-1.8 1.6-3.8 1.7-5.9 0-3.8-3-6.3-7.8-6.3-6.7 0-10.5 7-11.9 9.9l-5.1 10.4c-.6 1.3-1.2 2.6-1.6 4-1 1.8-3.5 7.2-7.8 7.2s-3-3.2-2-5.3h.1l10.7-22.2c1.5-3.2-3.3-4.9-4.8-1.8l-10.6 22.3-.4.9c-1.2 2.3-3.6 6.3-7.3 6.3-1.7 0-2.8-.6-2.8-2.1.1-1.2.4-2.3 1-3.3l6.8-14.1c.8-1.6 1.3-3.4 1.4-5.2 0-4.5-3.2-7.3-7.8-6.9-1.7.2-3.4.9-4.6 2.2-.1-1.1-1.1-1.9-2.2-1.8-1.1 0-2 .6-2.5 1.6l-10.8 22.4c-1 1.9-3.5 7.1-7.7 7.1-1.7 0-2.8-.6-2.8-2.1.1-1.2.4-2.3 1-3.3l10.6-22.3c1.2-3.3-3.4-4.2-4.7-1-1-1.9-3.7-2.9-6.1-2.9-7 0-10.8 7.1-12.3 9.9l-7.1 14.4-.3.6c-1.1 2.1-3.6 6.7-7.5 6.7s-3.7-2.5-2.6-5.4l9.1-19.4c.4-1.1 1.5-1.7 2.7-1.6h2.8c3.8 0 4-4.7.9-4.7h-1.3c-1.3 0-1.6-.5-1.1-1.6l2.7-5.4c2-3.9-3-5.2-4.7-1.9l-3.6 7.3c-.4 1.1-1.5 1.8-2.7 1.6h-.4c-3.6 0-4.4 4.7-.9 4.7.6 0 .9.5.4 1.6l-8.5 17.6c-.8 1.6-1.3 3.3-1.4 5.1 0 4.6 3.3 7.3 8.7 6.8 2.7-.3 5.3-1.5 7.3-3.4 1.3 2.3 4 3.4 7.5 3.4 2.8 0 5.4-1.2 7.3-3.2 1.2 2.2 3.7 3.2 7 3.2h.1c6.7-.1 11.1-7 12.5-10.1l7.2-15.3c1-2.1 4.1-6.2 7.9-6.2 1.7 0 2.8.9 2.8 2.2-.1 1-.4 2.1-.9 3l-6.9 14.3c-.8 1.7-1.3 3.5-1.4 5.3 0 4.6 2.9 6.8 7.9 6.8 2.7-.1 5.3-1.2 7.2-3.1 1.2 2.1 3.7 3.1 7 3.1s6.3-2 8.5-4.4c1.8 2.9 5.5 4.4 10 4.4 3.9-.1 7.6-1.4 10.6-3.8 1.2 2.6 4 3.8 7.7 3.8 2.8 0 5.4-1.2 7.3-3.2 1.2 2.2 3.7 3.2 7 3.2 2.2-.1 4.3-.8 6-2.2v.4c0 15.5 14.4 26.6 33.5 26.6 22 0 35.7-16 35.7-31.3 0-11.5-10-21.5-23.2-21.5zm-153.7 17.2c-1 2.2-3.7 6.2-7.2 6.2s-3.5-2.8-2.4-5.2l6.8-14c1-2.1 3.5-7.6 7.9-7.6s3.5 3 2.4 5.4zm94.6 0c-1 2.2-3.7 6.2-7.2 6.2s-3.5-2.8-2.4-5.2l6.8-14c1-2.1 3.5-7.6 7.9-7.6s3.5 3 2.4 5.4z"/><path d="m173.8 285.4-1.6.2c-3 0-4.1-2.3-4.1-5.1.1-2.8.7-5.6 1.9-8.2l18.4-38c3.1-6.5 9.4-16.6 17-16.6 1.5 0 3 .4 4.3 1.1 3.3 2.2 6.3-2.2 3.3-3.9-2.5-1.3-5.3-2-8.1-1.9-24 0-42 19.6-53.1 37.7-8.2 13.5-22.1 28.4-37.8 28.4-11.4 0-22.4-8.3-22.4-20.2s8.3-20.2 21.1-20.2c10.4 0 15.5 5.2 15.5 11.6 0 2.4-1 4.7-2.9 6.3-3.4 3.2.1 6.5 3.1 4 3.1-2.5 4.9-6.3 4.9-10.3 0-8.9-6.7-16.6-20.4-16.6-15.9 0-26.4 12.2-26.4 25.1 0 14.9 12.6 25.1 27.5 25.1 16.9 0 30.4-12.4 39.4-26.4.8-1.2 1.2-2.3 4.1-2.3h13.5c1.3 0 1.6.5 1.1 1.6l-6.6 13.6c-1.5 3.1-2.4 6.5-2.5 10 0 5.3 2.4 10 8.9 10l1.9-.2c3.7-.7 3-5.4 0-4.8zm-14-34.8c-1.7 0-1.6-1.2-1.2-1.8 9.1-15.1 20.8-25.4 33.7-29.2-3.4 3.9-6.4 9.2-9.1 14.4l-7.3 15c-.5 1.1-1.6 1.7-2.8 1.6z"/><path d="m240.8 241.8c-1.7-2.4-6-.1-4.2 2.7.5.9.7 1.9.8 2.9 0 2.4-1.2 5.5-2.6 8.5l-3.5 7.8c-1.6 3.5-4.7 8.1-9.5 8.1-1.4 0-2.5-.7-2.5-2.2.1-1 .4-2.1.9-3l10.7-22.5c1.9-3.5-2.9-5.2-4.7-1.8l-10.6 22.3c-1 1.8-3.5 7.2-7.8 7.2s-2.8-3.3-1.8-5.4l20.5-42.7c2-3.9-3-5.2-4.6-1.9l-10.1 21c-1-1.7-3.7-2.6-5.9-2.6-7 0-10.8 7.1-12.2 9.9l-7.1 14.4c-.7 1.6-1.2 3.3-1.3 5.1 0 4.6 3.3 6.9 8.3 6.9 2.8 0 5.4-1.2 7.3-3.2.3.6.7 1.1 1.2 1.5l1.5.9c1.4.6 2.8.9 4.3.8 2.7-.1 5.3-1.3 7.2-3.2 1.2 2.1 3.6 3.2 6.8 3.2 7.3 0 12.5-7.7 14.6-12.1 4.1-8.6 6-12.9 6-17.1 0-2-.6-3.9-1.7-5.5zm-39.5 22.6c-1.5 3.3-4.4 7.4-7.9 7.4s-3.5-2.8-2.4-5.2l6.8-14c1-2.1 3.5-7.6 7.9-7.6s3.5 2.4 2.8 4.5l-.9 2z"/><path d="m407.7 246.8c-13.3.1-21 9.3-21.1 17.6 0 3.4 1.3 6.8 3.1 8.5s6.3-.7 4.3-3.3-2.1-2.5-2.2-5c.1-7.1 6.4-12.9 15.9-12.9 9.6-.2 17.5 7.5 17.7 17.1 0 12.5-11.3 26-30.7 26.1-17.7 0-27-12-27.1-23.4 0-3.3.8-6.6 2.3-9.6.4-1 1.6-1.5 2.6-1.1.9.3 1.9.4 2.8.4 6.1 0 10.3-3.2 13.4-10.8.5-1.2.8-2.6.8-3.9 0-3.8-2.6-6.2-7.3-6.2-6.6 0-10.4 7-11.9 9.9l-5 10.2c-.6 1.3-1.2 2.6-1.6 4l-.2.3c-.9 1.8-3.5 7.2-7.8 7.2s-2.8-3.3-1.8-5.4l7.3-15c.7-1.7 1.2-3.5 1.4-5.3 0-7.8-10-3.7-6.8-9.9 1.5-3-3.2-4.5-4.6-1.6l-14.6 30c-.9 1.8-3.5 7.2-7.8 7.2-1.7 0-2.8-.6-2.8-2.1.1-1.2.4-2.3.9-3.3l10.5-22.3c1.6-3.5-3.2-5.1-4.6-1.8l-10.9 23c-1.1 2.5-4.2 6.5-7.5 6.5s-3.2-.7-3.2-2.2c.1-1 .4-2.1.9-3l10.7-22.3c1.7-3.5-3.1-5.3-4.6-2l-10.6 22.3c-.9 1.8-3.5 7.2-7.8 7.2s-3.7-2.5-2.6-5.4l9.1-19.4c.4-1.1 1.5-1.7 2.7-1.6h2.8c3.8 0 4-4.7.9-4.7h-1.3c-1.3 0-1.6-.5-1.1-1.6l2.7-5.4c2-3.9-3-5.2-4.6-1.9l-3.6 7.3c-.4 1.1-1.5 1.8-2.7 1.6h-.4c-3.6 0-4.4 4.7-.9 4.7.6 0 .9.5.4 1.6l-8.2 17.1-.3.4c-.9 1.8-3.5 7.2-7.8 7.2-1.7 0-2.8-.6-2.8-2.1.1-1.2.4-2.3.9-3.3l6.8-14.1c.8-1.6 1.3-3.4 1.4-5.2 0-4.5-3.2-7.3-7.8-6.9-1.7.2-3.4.9-4.6 2.2 0-1-.9-1.9-2-1.8-.1 0-.2 0-.2 0-1.1 0-2 .6-2.5 1.6l-10.6 22.2c-1.5 2.5-5.8 7.4-11.4 7.4-3.6-.1-5.7-1.6-5.7-4.5 0-1.4.5-2.8 1.5-5.4.3-1 1.3-1.5 2.2-1.3.1 0 .3.1.4.2.9.3 1.9.4 2.8.4 6.1 0 10.3-3.2 13.4-10.8.5-1.2.8-2.6.8-3.9 0-3.8-2.6-6.2-7.3-6.2-6.6 0-10.4 7-11.9 9.9l-5.1 10.4c-1.2 2.2-1.9 4.7-2.1 7.2 0 5.8 4.7 8.8 11.1 8.8s13.3-5.1 15.8-10.2l7.4-15.2c1-2.1 4.1-6.2 7.9-6.2 1.7 0 2.8.9 2.8 2.2-.1 1-.4 2.1-.9 3l-6.9 14.3c-.8 1.7-1.3 3.5-1.4 5.3 0 4.6 2.9 6.8 7.9 6.8 2.7-.1 5.4-1.3 7.3-3.2 1.3 2.3 4 3.6 7.8 3.2 2.7-.3 5.2-1.5 7.2-3.4 1.3 2.3 4 3.4 7.5 3.4 2.8 0 5.4-1.2 7.3-3.2 1.2 2.2 3.7 3.2 7 3.2 6.1 0 10.7-6.5 12.3-10.2l11.5-23.8c.3 3.1 4.6 1.5 4.6 4.3-.1 1-.4 2.1-.9 3l-7.1 14.6c-.9 1.6-1.3 3.5-1.4 5.3 0 4.6 2.9 6.8 7.9 6.8 2.6-.1 5.1-1.2 7-3 1.2 15.3 14.7 26.2 32.5 26.2 21.9 0 35.6-16 35.6-31.3-.2-11.7-10.1-21.7-23.2-21.7zm-33.7 7 1.2-2.6c1.3-2.9 3.5-6.6 6.8-6.2s1.7 3.4 1 4.9c-1.8 4.2-4 6.3-7.2 6.3s-2.2-1.5-1.8-2.4zm-122 0 1.2-2.6c1.3-2.9 3.5-6.6 6.8-6.2s1.7 3.4 1 4.9c-1.8 4.2-4 6.3-7.2 6.3s-2.1-1.5-1.7-2.4z"/></g></g></svg>