<svg xmlns="http://www.w3.org/2000/svg" width="473" height="363" viewBox="0 0 473 363"><defs><style>.a,.b{fill:none;stroke-miterlimit:10;}.a{stroke:red;}.b{stroke:blue;}</style></defs><title>a-dreamy-botanical-adventure_storkepath</title>

<path class="a" d="M249.6,45a8.4,8.4,0,0,0,2.8-6.3c0-6.5-4.8-11.6-14.8-11.6a19.9,19.9,0,0,0-20.2,20.2c0,11.9,10.6,20.2,21.5,20.2,15,0,28.4-14.9,36.2-28.4C285.8,21,303,1.5,326,1.5a14.9,14.9,0,0,1,7.7,1.9c2.8,1.7,0,6.1-3.2,3.9a8.4,8.4,0,0,0-4.1-1.1c-7.3,0-13.3,10.1-16.3,16.6l-17.6,38a22.1,22.1,0,0,0-1.8,8.2c0,2.8,1,5.1,3.9,5.1l1.5-.2c2.9-.5,3.5,4.2,0,4.9l-1.8.2c-6.3,0-8.5-4.7-8.5-10a24.9,24.9,0,0,1,2.4-10l6.4-13.6c.5-1.2.2-1.6-1.1-1.6H280.6"/>

<path class="a" d="M184.3,92.5c.4-1.2,1.9-2.1,4-1.4a17.1,17.1,0,0,1,2.9,1.4,12.9,12.9,0,0,1,4,3.1,14.9,14.9,0,0,1,4,10.1c0,9.4-7.7,16.8-17.7,18a19.9,19.9,0,0,1-7.9-.5,22.8,22.8,0,0,1-17.2-21.9c0-14.6,15-30,36.9-30,17.8,0,37.3,11.8,37.3,32.7s-17.7,39.9-42.3,39.9c-6.9,0-13.5-2.6-20.1-5.2-4.3,2.4-8.9,3.6-15.3,3.7-3.8-.1-12.9-1.4-12.9-7.3,0-3.3,4.1-6.2,9.3-6.2s12.3,2,18.3,4.3a26.9,26.9,0,0,0,6.8-7.3l5.4-9.5,2.2-4.4h0l7-15.1,2.2-4.5A108.5,108.5,0,0,1,199,79.1a2.9,2.9,0,0,0,.7-1.4"/>

<path class="a" d="M237.6,146.2c-5.3,0-7.9-5.1-7.9-10.6s2.1-9.2,2.9-11.1l14.4-30.6c1.7-3.7,6.5-1.7,4.7,2-3.1,6.2,6.8,2.1,6.8,10a21.1,21.1,0,0,1-1.4,5.3l-7.3,15.1c-1,2.1-1.8,5.4,1.8,5.4s6.8-5.4,7.8-7.3"/>

<path class="a" d="M259.6,124.6a25.3,25.3,0,0,1,1.6-4.1l5.1-10.5c1.4-2.9,5.2-10,11.9-10,4.7,0,7.3,2.4,7.3,6.2a11.6,11.6,0,0,1-.8,3.9c-3,7.7-7.3,10.9-13.4,10.9a11.2,11.2,0,0,1-2.8-.4,1.8,1.8,0,0,0-2.6,1.1c-1,2.6-1.5,4-1.5,5.4,0,2.9,2.1,4.5,5.7,4.6,5.6,0,9.9-4.9,11.4-7.4"/>

<path class="a" d="M295.8,133.4a10.1,10.1,0,0,1-7.3,3.2c-5,0-8.4-2.3-8.4-7a14.7,14.7,0,0,1,1.3-5.1l7.1-14.5c1.4-2.8,5.2-10,12.2-10,2.4,0,5.1,1,6.1,2.9,1.2-3.2,5.9-2.3,4.7,1l-10.5,22.5a8.4,8.4,0,0,0-.9,3.3c0,1.5,1,2.1,2.8,2.1,4.3,0,6.8-5.4,7.8-7.3"/>

<path class="a" d="M359,126.3c-1.6,3.7-6.3,10.3-12.3,10.3s-7.9-2.2-7.9-6.9a13.9,13.9,0,0,1,1.4-5.3l6.9-14.4a9.2,9.2,0,0,0,.9-3c0-1.3-.9-2.2-2.6-2.2-3.7,0-6.9,4-8.4,7l-10.4,21.8c-1.8,3.8-6.9,2.7-5.2-.8l10.9-22.6a9,9,0,0,0,.9-3.2c0-1.3-1-2.2-2.8-2.2-3.8,0-6.9,4.1-7.9,6.2l-7.2,15.4c-1.4,3.1-5.8,10.2-12.5,10.2-3.1,0-2.8-4.8,0-4.8"/>

<path class="a" d="M369.8,103.9l-10.7,22.7a9.2,9.2,0,0,0-.9,3c0,1.5,1.3,2.2,3.2,2.2,4.3,0,6.9-5.5,7.9-7.3h0l10.5-22.5c1.4-3.1,6.4-1.7,4.7,1.8l-16.3,34.5c-5.1,11.5-12.4,20-22.7,20s-12.4-4.9-12.4-10a10.5,10.5,0,0,1,10.2-10.1"/>

<path class="a" d="M118.1,200c-8.9-3.2-13.4-11.2-13.4-20.1,0-14.6,15.1-35.8,46.5-35.8,16.6,0,31.7,9.5,31.7,23,0,7.7-4.6,13.7-10.6,17.1,0,0-2.7,1.5-4.7,2.5a28.2,28.2,0,0,1-9.3,1.5c-4.2,0-7.3-2.4-7.3-4.7s3.6-5,7.3-5a21.9,21.9,0,0,1,9.9,2.5,16.8,16.8,0,0,1,4.1,3.3,14.3,14.3,0,0,1,3.7,9.6c0,11.6-12.8,23.9-28.8,23.9-7.3,0-13.7-2.5-19.7-5.3a31.8,31.8,0,0,1-13.4,2.7c-3.8-.1-12.9-1.4-12.9-7.3,0-3.2,4-6.2,9-6.2s11.5,2.6,16.9,5.2c7.1-4.3,11.6-13.1,16.2-22.5h-.1c1-2.2,2.1-4.5,3.2-6.8h0l3.2-6.7c3.8-8,8-17.6,12.8-20.6"/>

<path class="a" d="M178.6,201.9a14.5,14.5,0,0,1,1.3-5.1l7.1-14.4c1.4-2.8,5.2-9.9,12.3-9.9,5,0,8.4,2.3,8.4,6.9a14.6,14.6,0,0,1-1.4,5.2l-7,14.3c-1.4,2.8-5.2,9.9-12.3,9.9C181.9,208.8,178.6,206.6,178.6,201.9Z"/>

<path class="a" d="M213.7,177.7c-3.5,0-2.8-4.7.9-4.7h.4a2.5,2.5,0,0,0,2.7-1.6l3.6-7.3c1.6-3.3,6.7-2,4.7,1.9l-2.7,5.4c-.5,1.2-.2,1.6,1.1,1.6h1.3c3.1,0,2.9,4.7-.9,4.7h-2.8a2.6,2.6,0,0,0-2.7,1.6l-9.1,19.4c-1.1,2.8-.8,5.4,2.6,5.4s6.8-5.4,7.8-7.2"/>

<path class="a" d="M235,205.7a10.2,10.2,0,0,1-7.3,3.2c-5,0-8.4-2.3-8.4-6.9a14.5,14.5,0,0,1,1.3-5.1l7.1-14.4c1.4-2.8,5.2-9.9,12.3-9.9,2.4,0,5.1,1,6.1,2.9,1.2-3.2,5.9-2.3,4.7,1l-10.6,22.3a8.2,8.2,0,0,0-1,3.3c0,1.5,1,2.1,2.8,2.1,4.3,0,6.8-5.4,7.8-7.2"/>

<path class="a" d="M249.8,196.9l10.7-22.4a2.8,2.8,0,0,1,2.5-1.6,2,2,0,0,1,2.2,1.8,7.3,7.3,0,0,1,4.6-2.2c4.6-.4,7.8,2.5,7.8,6.9a14.6,14.6,0,0,1-1.4,5.2l-6.8,14.1a8.2,8.2,0,0,0-1,3.3c0,1.5,1,2.1,2.8,2.1,4.3,0,6.8-5.4,7.8-7.2"/>

<path class="a" d="M278.9,196.9l10.6-22.3c1.4-3.1,6.3-1.4,4.8,1.8l-10.7,22.2c-1,2.1-1.6,5.5,1.9,5.5s6.8-5.4,7.8-7.2m3.4-28.4a3.3,3.3,0,0,1-3.5-4,4.7,4.7,0,0,1,4.4-3.7,3.4,3.4,0,0,1,3.6,4.1A4.6,4.6,0,0,1,296.6,168.6Z"/>

<path class="a" d="M293.6,195.9a26.4,26.4,0,0,1,1.3-3l5.1-10.4c1.4-2.9,5.2-9.9,11.9-9.9,4.8,0,7.8,2.5,7.8,6.3a12.9,12.9,0,0,1-1.7,5.9c-1.8,3.5-7.1,1.9-5-1.8a9.1,9.1,0,0,0,1.3-4.1c0-.8-.9-1.5-2.4-1.5-3.9,0-6,4.5-7.4,7.5l-4.9,10a10.8,10.8,0,0,0-1.3,4.8c0,2.9,2.1,4.5,5.7,4.5,5.6,0,9.9-4.8,11.4-7.4m-22.1.4.4-1.3"/>

<path class="a" d="M329.6,205.7a10.2,10.2,0,0,1-7.3,3.2c-5,0-8.4-2.3-8.4-6.9a14.5,14.5,0,0,1,1.3-5.1l7.1-14.4c1.4-2.8,5.2-9.9,12.3-9.9,2.4,0,5.1,1,6.1,2.9,1.2-3.2,5.9-2.3,4.7,1l-10.6,22.3a8.2,8.2,0,0,0-1,3.3c0,1.5,1,2.1,2.8,2.1,4.3,0,6.8-5.4,7.8-7.2"/>

<path class="a" d="M344.3,197.2l1.2-2.8L365,154.2c1.6-3.3,6.7-2,4.7,1.9l-19.3,40.1a22.3,22.3,0,0,0-2.3,11c-.1,10.5,9.6,21.6,27.6,21.6,19.5-.1,30.8-13.6,30.8-26.1a17.4,17.4,0,0,0-17.8-17.1c-9.6,0-16.1,5.8-16,12.9,0,2.5,1.1,3.6,2.2,5"/>

<path class="a" d="M126.2,256.7a8.2,8.2,0,0,0,2.9-6.3c0-6.5-5-11.6-15.5-11.6-12.7,0-21.1,9.6-21.1,20.2s11,20.2,22.4,20.2c15.6,0,29.6-14.9,37.7-28.4,11.1-18.1,29.1-37.7,53.1-37.7a16,16,0,0,1,8.1,1.9c2.9,1.7,0,6.1-3.3,3.9a9.1,9.1,0,0,0-4.3-1.1c-7.6,0-13.8,10.1-17,16.6l-18.4,38a21.4,21.4,0,0,0-1.9,8.2c0,2.8,1,5.1,4.1,5.1l1.6-.2c3-.5,3.7,4.2,0,4.9l-1.9.2c-6.5,0-8.9-4.7-8.9-10a24,24,0,0,1,2.5-10l6.6-13.6c.5-1.2.2-1.6-1.1-1.6H158.5"/>

<path class="a" d="M201.7,273.7a10.2,10.2,0,0,1-7.3,3.2c-5,0-8.3-2.3-8.3-6.9a14.5,14.5,0,0,1,1.3-5.1l7.1-14.4c1.4-2.8,5.2-9.9,12.2-9.9,2.2,0,4.8.9,5.9,2.6m14.8-19.1L207,266.8c-1,2.1-1.8,5.4,1.8,5.4s6.8-5.4,7.8-7.2"/>

<path class="a" d="M241.8,242.1a9.2,9.2,0,0,1,1.6,5.5c0,4.2-1.9,8.5-6,17.1-2.1,4.4-7.3,12.1-14.6,12.1-4.6,0-7.7-2.3-7.7-6.9a12.6,12.6,0,0,1,1.4-5l10.6-22.3"/>

<path class="a" d="M269,266.7c-2.6,5.1-8.7,10.2-15.8,10.2s-11.1-3-11.1-8.8a18.2,18.2,0,0,1,2.1-7.2l5.1-10.4c1.4-2.9,5.2-9.9,11.9-9.9,4.7,0,7.3,2.4,7.3,6.2a11.5,11.5,0,0,1-.8,3.9c-3,7.6-7.3,10.8-13.4,10.8a11.2,11.2,0,0,1-2.7-.4"/>

<path class="a" d="M298,266.7c-1.6,3.6-6.3,10.2-12.3,10.2s-7.9-2.2-7.9-6.8a13.7,13.7,0,0,1,1.4-5.3l6.9-14.3a9,9,0,0,0,.9-3c0-1.3-1-2.2-2.7-2.2-3.8,0-6.8,4.1-7.9,6.2L269,266.7"/>

<path class="a" d="M301.6,245.7c-3.5,0-2.7-4.7.9-4.7h.4a2.5,2.5,0,0,0,2.7-1.6l3.6-7.3c1.6-3.3,6.6-2,4.6,1.9l-2.7,5.4c-.5,1.2-.2,1.6,1.1,1.6h1.3c3.1,0,2.9,4.7-.9,4.7H310a2.6,2.6,0,0,0-2.7,1.6l-9.1,19.4c-1.1,2.8-.8,5.4,2.6,5.4s6.8-5.4,7.8-7.2"/>

<path class="a" d="M308.5,264.9l10.6-22.3c1.5-3.3,6.4-1.5,4.6,2l-10.7,22.3a9,9,0,0,0-.9,3c0,1.5,1.3,2.2,3.2,2.2s6.4-4,7.5-6.5l10.9-23c1.4-3.3,6.3-1.6,4.6,1.8L328,266.8a8.2,8.2,0,0,0-.9,3.3c0,1.5,1,2.1,2.8,2.1,4.3,0,6.8-5.4,7.8-7.2"/>

<path class="a" d="M337.6,264.9l14.6-30c1.3-2.8,6.1-1.4,4.6,1.6-3.1,6.2,6.8,2.1,6.8,9.9a20.7,20.7,0,0,1-1.4,5.3l-7.3,15c-1,2.1-1.8,5.4,1.8,5.4s6.8-5.4,7.8-7.2"/>

<path class="a" d="M390.8,273.2c-1.8-1.6-3.1-5.1-3.1-8.5.1-8.4,7.8-17.6,21.1-17.6s23,10,23,21.7c0,15.3-13.7,31.3-35.6,31.3-18.7,0-32.6-12-32.6-28.4a24.7,24.7,0,0,1,2.7-11.1l5-10.2c1.4-2.9,5.2-9.9,11.9-9.9,4.7,0,7.3,2.4,7.3,6.2a11.4,11.4,0,0,1-.8,3.9c-3,7.6-7.3,10.8-13.4,10.8a11.2,11.2,0,0,1-2.7-.4"/>

<path class="b" d="M286.1,43q-1.5-1.8.8-4.2a36.3,36.3,0,0,1,26.6-11.2A35.9,35.9,0,0,1,340,38.5,36,36,0,0,1,351,65a35.6,35.6,0,0,1-11,26.4,35.6,35.6,0,0,1-26.4,11,40.2,40.2,0,0,1-7-.7c-2-.4-5.3-1.5-6.9-2l-3.5-1.3-3.1-1.3-3.4-1.5-3-1.3c-10.4-4.8-18.8-7.8-24.9-9a36.4,36.4,0,0,0-14.6.2,27.2,27.2,0,0,0-11.8,5.8c-3.6,3.3-5.3,6.8-5,10.8a2.7,2.7,0,0,1-2.5,2.8h-.1"/>

<path class="b" d="M385.2,112.1q-1.9-2.2,1-5,13.5-13.5,32-13.5a45,45,0,0,1,45,45,45.2,45.2,0,0,1-45,45,48.3,48.3,0,0,1-8.4-.9c-2.4-.4-6.4-1.8-8.3-2.4l-4.2-1.6-3.7-1.6-4-1.8-3.6-1.6c-12.6-5.7-22.6-9.4-30-10.9a43.8,43.8,0,0,0-17.5.2,32.7,32.7,0,0,0-14.3,7c-4.4,3.9-6.4,8.2-6.1,13a3.2,3.2,0,0,1-3,3.4h-.1"/>

<path class="b" d="M80.5,244.7q1.9,2.2-1,5-13.5,13.5-32,13.5a43.2,43.2,0,0,1-31.8-13.1,44.8,44.8,0,0,1,0-63.6,42.9,42.9,0,0,1,31.8-13.2,48.3,48.3,0,0,1,8.4.9c2.4.4,6.4,1.8,8.3,2.4l4.2,1.6,3.7,1.6,4,1.8,3.6,1.6c12.6,5.7,22.6,9.4,30,10.9a43.8,43.8,0,0,0,17.5-.2,32.7,32.7,0,0,0,14.3-7c4.4-3.9,6.4-8.2,6.1-13a3.2,3.2,0,0,1,3-3.4h.1"/>

<path class="b" d="M394.5,343.3q-1.9,2.2,1,5,13.5,13.5,32,13.5a44.9,44.9,0,0,0,31.8-76.7,42.9,42.9,0,0,0-31.8-13.2,48.3,48.3,0,0,0-8.4.9c-2.4.4-6.4,1.8-8.3,2.4l-4.2,1.6-3.7,1.6-4,1.8-3.6,1.6c-12.6,5.7-22.6,9.4-30,10.9a43.8,43.8,0,0,1-17.5-.2,32.7,32.7,0,0,1-14.3-7c-4.4-3.9-6.4-8.2-6.1-13a3.2,3.2,0,0,0-3-3.4h-.1"/>

</svg>