<svg xmlns="http://www.w3.org/2000/svg" width="225.1" height="124.4" viewBox="0 0 225.1 124.4"><defs><style>.a{fill:none;stroke:red;stroke-miterlimit:10;}</style></defs><title>open-the-garden-gate_storkepath</title>

<path class="a" d="M81.4.7c10.4,0,17.2,7.7,17.2,18a27.7,27.7,0,0,1-.6,5.6C95,36.9,83.1,47.1,71.3,47.1S54,39.4,54,29.1a23,23,0,0,1,.7-5.5C57.6,10.9,69.6.7,81.4.7Z"/>

<path class="a" d="M99.1,41.8a5.5,5.5,0,0,0,3.9,1.4c4.5,0,7-4.8,7.9-6.7l4.5-9.6a14.8,14.8,0,0,0,.9-3.5c0-3.1-1.6-4.6-4.6-4.6a4.7,4.7,0,0,0-3.2,1.7c-.2.2-.3.2-.2-.1s-1.8-2.6-2.9-.2L88.8,56.3"/>

<path class="a" d="M129.7,35.1c-1,1.7-3.7,4.9-7.3,4.9s-3.7-1.1-3.7-3.1a10.3,10.3,0,0,1,1-3.6,1.2,1.2,0,0,1,1.6-.7,6.9,6.9,0,0,0,1.8.2c3.9,0,6.7-2.1,8.6-7.3a8,8,0,0,0,.5-2.6c0-2.6-1.6-4.2-4.7-4.2s-6.7,4.7-7.6,6.7l-3.3,7a17.3,17.3,0,0,0-1,2.5v.2c-.6,1.2-2.3,4.8-5,4.8"/>

<path class="a" d="M129.6,35.2l6.9-15a1.8,1.8,0,0,1,1.6-1.1,1.3,1.3,0,0,1,1.4,1.2,4.6,4.6,0,0,1,2.9-1.5,4.4,4.4,0,0,1,5,4.6,10.2,10.2,0,0,1-.9,3.5l-4.3,9.3c-1.3,2.9-2.7,6.5-2.7,10.3s1.5,9,7.5,9,6.5-3.4,6.5-5.8a2.5,2.5,0,0,0-.4-1.6"/>

<path class="a" d="M160.9,22.3c-2.3,0-1.8-3.2.5-3.2h.2a1.6,1.6,0,0,0,1.7-1.1l2.3-4.9c1-2.2,4.3-1.3,3,1.3L167,18.1c-.3.8-.1,1.1.7,1.1h.9c2,0,1.9,3.2-.5,3.2h-1.8a1.7,1.7,0,0,0-1.7,1.1l-5.9,13c-.7,1.9-.5,3.6,1.6,3.6s4.4-3.6,5-4.8"/>

<path class="a" d="M165.3,35.2l5.5-12,3.2-7.1c1.5-3.3,3.1-6.7,5.4-9l2.4-2.4A19.9,19.9,0,0,1,194.3,0c3.9-.1,10.6,1.3,10.6,6.5s-3.1,7-8.6,7-9.2-2.4-13.8-4.9L179.5,7c-3.5-1.8-7-3.3-10.3-3.3s-7.3,3.3-7.3,5.9a5.2,5.2,0,0,0,.4,1.9"/>

<path class="a" d="M178.9,43.2c-3.2,0-5.1-1.5-5.1-4.6a9.5,9.5,0,0,1,.9-3.5l4.5-9.6a6.3,6.3,0,0,0,.5-2c0-1-.9-1.5-2.1-1.5s-4,2.6-4.7,4.1h0l-4.7,10.4"/>

<path class="a" d="M198.2,35.1c-1,1.7-3.7,4.9-7.3,4.9s-3.7-1.1-3.7-3.1a10.3,10.3,0,0,1,1-3.6,1.2,1.2,0,0,1,1.6-.7,6.9,6.9,0,0,0,1.8.2c3.9,0,6.7-2.1,8.6-7.3a8,8,0,0,0,.5-2.6c0-2.6-1.6-4.2-4.7-4.2s-6.7,4.7-7.6,6.7l-3.3,7a17.3,17.3,0,0,0-1,2.5v.2c-.6,1.2-2.3,4.8-5,4.8"/>

<path class="a" d="M43,114.7c0,2.6-2.7,5.9-7.3,5.9s-7-1.5-10.6-3.4l-2.7-1.6c-4.6-2.3-9.2-4.8-13.9-4.8s-8.6,3.2-8.6,7,2.9,6.5,9.3,6.5a21.1,21.1,0,0,0,13.4-4.7l2.4-2.3a18.9,18.9,0,0,0,4.1-6.3l1.2-2.6,7.3-16L40.3,87c.9-2.6-2.3-2.4-3-.7a4.5,4.5,0,0,0-3.9-1.9c-4.5,0-7,4.8-7.9,6.7l-4.6,9.7a12.2,12.2,0,0,0-.9,3.4c0,3.1,2.1,4.6,5.4,4.6a3.3,3.3,0,0,0,2-.9c.1-.1.1-.1,0,.1l-.2.4"/>

<path class="a" d="M107.8,100.5c-1,1.7-3.7,4.9-7.3,4.9s-3.7-1.1-3.7-3.1a10.3,10.3,0,0,1,1-3.6,1.2,1.2,0,0,1,1.6-.7,6.9,6.9,0,0,0,1.8.2c3.9,0,6.7-2.1,8.6-7.3a8,8,0,0,0,.5-2.6c0-2.6-1.6-4.2-4.7-4.2s-6.7,4.7-7.6,6.7l-3.3,7a17.3,17.3,0,0,0-1,2.5v.2c-.6,1.2-2.3,4.8-5,4.8"/>

<path class="a" d="M107.7,100.6l6.8-14.9a1.8,1.8,0,0,1,1.6-1.1,1.3,1.3,0,0,1,1.4,1.2,4.6,4.6,0,0,1,2.9-1.5,4.4,4.4,0,0,1,5,4.6,10.2,10.2,0,0,1-.9,3.5l-4.4,9.5a5.7,5.7,0,0,0-.6,2.2c0,1,.7,1.4,1.8,1.4,2.7,0,4.4-3.6,5-4.8"/>

<path class="a" d="M157.7,114.7c0,2.6-2.7,5.9-7.3,5.9s-7-1.5-10.6-3.4l-2.7-1.6c-4.6-2.3-9.2-4.8-13.9-4.8s-8.6,3.2-8.6,7,2.9,6.5,9.3,6.5a21.1,21.1,0,0,0,13.4-4.7l2.4-2.3a18.9,18.9,0,0,0,4.1-6.3l1.2-2.6,7.3-16,2.4-5.4c.9-2.6-2.3-2.4-3-.7a4.5,4.5,0,0,0-3.9-1.9c-4.5,0-7,4.8-7.9,6.7l-4.6,9.7a12.2,12.2,0,0,0-.9,3.4c0,3.1,2.1,4.6,5.4,4.6a3.3,3.3,0,0,0,2-.9c.1-.1.1-.1,0,.1l-.2.4"/>

<path class="a" d="M172.1,100.7,177.5,89c.3-.8.1-1.1-.2-1.1-2.3,0-1.8-3.2.5-3.2h.2a1.6,1.6,0,0,0,1.7-1.1l2.3-4.9c1-2.2,4.3-1.3,3,1.3l-1.7,3.6c-.3.8-.1,1.1.7,1.1h.9c2,0,1.9,3.2-.5,3.2h-1.8a1.7,1.7,0,0,0-1.7,1.1L175,102c-.7,1.9-.5,3.6,1.6,3.6s4.4-3.6,5-4.8"/>

<path class="a" d="M198.7,106.3a8.4,8.4,0,0,1-2-5.7c.1-5.6,5-11.8,13.6-11.9a14.7,14.7,0,0,1,14.8,14.6c0,10.3-8.8,21-22.9,21-12,0-21-8.1-21-19.1a17.2,17.2,0,0,1,1.7-7.5l3.2-6.8c.9-2,3.4-6.7,7.6-6.7s4.7,1.6,4.7,4.2a8,8,0,0,1-.5,2.6c-2,5.1-4.7,7.3-8.6,7.3a6.9,6.9,0,0,1-1.8-.2"/>

<path class="a" d="M57.4,100.7l9.4-20.2c.9-1.9,3.9-.9,2.9,1.1-2,4.2,4.4,1.4,4.4,6.7a14.4,14.4,0,0,1-.9,3.5L68.6,102c-.7,1.4-1.2,3.6,1.2,3.6s4.4-3.6,5-4.8"/>

<path class="a" d="M57.6,100.7c-.6,1.2-2.3,4.8-5,4.8-1.1,0-1.8-.4-1.8-1.4a5.7,5.7,0,0,1,.6-2.2l6.8-15c.8-2.2-2.2-2.8-3-.7-.6-1.3-2.4-2-3.9-2-4.5,0-7,4.8-7.9,6.7l-4.6,9.7-.2.4c-.7,1.4-2.3,4.5-4.8,4.5s-2.1,3.2,0,3.2a7,7,0,0,0,4.8-2.2c.8,1.5,2.5,2.2,4.8,2.2a6.4,6.4,0,0,0,4.7-2.1"/>

<path class="a" d="M172.1,100.7c-.6,1.2-2.3,4.8-5,4.8-1.1,0-1.8-.4-1.8-1.4a5.7,5.7,0,0,1,.6-2.2l6.8-15c.8-2.2-2.2-2.8-3-.7-.6-1.3-2.4-2-3.9-2-4.5,0-7,4.8-7.9,6.7l-4.6,9.7-.2.4c-.7,1.4-2.3,4.5-4.8,4.5s-2.1,3.2,0,3.2a7,7,0,0,0,4.8-2.2c.8,1.5,2.5,2.2,4.8,2.2a6.4,6.4,0,0,0,4.7-2.1"/>

<path class="a" d="M95.4,84.5l-4.2,9-.2.6h-.1l-3.5,7.8c-.7,1.4-1.2,3.6,1.2,3.6,0,0,2.7.2,4.9-4.4M84,106.5a6.4,6.4,0,0,1-4.7,2.1c-3.2,0-5.4-1.5-5.4-4.6a10.1,10.1,0,0,1,.9-3.4l4.6-9.7c.9-1.9,3.4-6.7,7.9-6.7A4.6,4.6,0,0,1,91,86c3.8-8.1,8-15.2,12.9-20.6l2.3-2.4c5.7-5.6,12.5-8.9,20.4-8.9,9.8,0,14.7,4.9,14.7,10.1s-4.6,11.1-15.6,11.1c-8.6,0-14.2-3.8-19.4-7.9l-2.4-2c-5.3-4.1-10.6-8.1-18.9-8.1-9.8,0-13,5.4-13,9.1A4.7,4.7,0,0,0,74,70.3a1.5,1.5,0,0,1,.7,1.3"/>

</svg>